<svg xmlns="http://www.w3.org/2000/svg" viewBox="0 0 500 500"><defs><style>.cls-1{fill:#757575;}</style></defs><title>Excerpt Plus Block</title><g id="Blocks"><path class="cls-1" d="M89.48,207v2.12a21.46,21.46,0,0,0,5,14.17,16.16,16.16,0,0,0,13.06,5.94q10.79,0,15.78-11l8.45,1.67q-7.23,16.89-25.23,16.89a24.32,24.32,0,0,1-20-9.67q-6.89-8.9-6.89-21.67,0-12.45,7.67-21t20.23-8.56q12.45,0,19.34,9.67a33.31,33.31,0,0,1,4.45,9.56A42.7,42.7,0,0,1,132.83,207Zm33.46-6.44a20.34,20.34,0,0,0-4.11-12.79q-4.11-5.33-11.56-5.33-14.34,0-17.68,18.12Z"/><path class="cls-1" d="M152.62,204.9,135.5,177.34h10l12.23,20.23q6.33-10.35,13-20.35h8.11q-3.67,5.57-8.67,13.57-3.68,5.78-7.89,12.78l20,31.9H171.74L164,223.13a116.61,116.61,0,0,1-7.12-12.67q-7.34,12.67-15.34,25h-9Z"/><path class="cls-1" d="M222.42,197.57q0-7.12-3.5-10.73t-10.06-3.61q-15.23,0-15.23,23.34,0,9.12,3,15.12a13.19,13.19,0,0,0,12.45,7.55,11.79,11.79,0,0,0,9.34-4.44,19.78,19.78,0,0,0,4.33-9.67l8,1.33q-4.68,20.23-21.68,20.23-12.22,0-18.89-8.78-6-7.89-6-20.67,0-13,5.56-21.34,6.56-9.9,18.79-9.9,10,0,15.34,5.23,5,4.67,7.33,14.78Z"/><path class="cls-1" d="M244.54,207v2.12a21.46,21.46,0,0,0,5,14.17,16.15,16.15,0,0,0,13.06,5.94q10.77,0,15.78-11l8.45,1.67q-7.23,16.89-25.23,16.89a24.32,24.32,0,0,1-20-9.67q-6.9-8.9-6.89-21.67,0-12.45,7.67-21t20.23-8.56q12.43,0,19.34,9.67a33.56,33.56,0,0,1,4.44,9.56A42.32,42.32,0,0,1,287.89,207ZM278,200.57a20.35,20.35,0,0,0-4.12-12.79q-4.11-5.33-11.56-5.33-14.32,0-17.67,18.12Z"/><path class="cls-1" d="M295.67,177.22H304l-.12,13.68q3.57-7.68,6.23-10.45a14.4,14.4,0,0,1,11-4.78l3.34.22v8q-19.68,0-19.68,26.68v24.9h-9.11Z"/><path class="cls-1" d="M327.35,177.22h8.22v10.34q5-6.56,7.56-8.56,4.11-3.21,10.78-3.22,11.34,0,17.79,9.56,5.78,8.44,5.78,20.23,0,12.23-5.45,21-6.33,10.33-17.89,10.33t-17.79-9.78v28.35h-9ZM352.8,229.8q7.89,0,12-8.11a32.37,32.37,0,0,0,3.33-15.23q0-9.22-3-15.56-4.11-8.11-12.34-8.12-8.78,0-13.23,8.12a29.76,29.76,0,0,0-2.55,7.17,41,41,0,0,0-.89,9.05q0,9.57,3.55,15.34Q344,229.81,352.8,229.8Z"/><path class="cls-1" d="M379.81,177.22h8.56V162.33l8.89-.67v15.56h13.12v7.12h-12.9V217.8c0,3.85.73,6.67,2.17,8.44s4,2.67,7.73,2.67a25.85,25.85,0,0,0,5.67-.67l.11,7.45-5,.56h-3.44q-9.45,0-13.34-6-3-4.67-3-15v-30.9h-8.56Z"/><path class="cls-1" d="M230.1,265.87h16L246,276.61a17.36,17.36,0,0,1,6.2-8.55,16.32,16.32,0,0,1,9.92-3.18q11.29,0,16.78,9.76,4.61,7.91,4.61,20t-4.72,20.29q-5.81,9.87-17.32,9.87-8.67,0-14.59-8.66v27.19H230.1ZM256,312.81q10,0,10-18.32,0-17.76-8.88-17.76-6.58,0-9,7.12a44,44,0,0,0-1.43,12.62v2.41a18.79,18.79,0,0,0,2.08,9.1Q251.26,312.81,256,312.81Z"/><path class="cls-1" d="M291.29,246h16.78v77.43H291.29Z"/><path class="cls-1" d="M315.75,266h16.78v35.75q0,9.76,7.13,9.76,8.32,0,8.33-14.26V266h16.89v57.57H349.09v-8.44q-5.37,9.64-16.34,9.65-8.34,0-12.94-5.7-4.06-5.26-4.06-13.82Z"/><path class="cls-1" d="M382.76,305.9q3,7.56,12.39,7.56a18,18,0,0,0,6.47-1.09q3.84-1.53,3.84-4.61,0-1.75-2.19-3.51l-14.15-2.74q-8.55-1.86-12.72-5.15-5.49-4.5-5.49-12.84,0-8.76,8.23-14.25a30.56,30.56,0,0,1,16.67-4.5,25.06,25.06,0,0,1,14,4,20.25,20.25,0,0,1,8.33,11.51l-12.61,3.08q-2.62-7.57-11.08-7.57t-8.44,5.59q0,3.07,8.88,4.61,12.51,2,16.67,4.05,8.88,4.29,8.89,14.37,0,10.32-8.45,15.8-7.12,4.6-18,4.6a30,30,0,0,1-15.91-4.06,20.3,20.3,0,0,1-9.43-13.05Z"/></g></svg>